<svg xmlns="http://www.w3.org/2000/svg" xmlns:xlink="http://www.w3.org/1999/xlink" viewBox="0 0 819.57 628"><defs><style>.cls-1{isolation:isolate;}.cls-2{fill:#ff766e;}.cls-3{fill:url(#linear-gradient);}.cls-4{fill:#fff;}.cls-5{fill:#ed6f70;}.cls-6{fill:#f5f7ff;}.cls-7{fill:#323657;}.cls-8{fill:#d6d6d6;}.cls-9{fill:#e8e8e8;}.cls-10{fill:#c2c2c2;}.cls-11{fill:#e0e0e0;}.cls-12{fill:#f0f0f0;}.cls-13{fill:#b25354;}.cls-14{fill:#f18c8d;}.cls-15{fill:#f09ea2;}.cls-16{fill:#d9d9d9;}.cls-17{fill:#252840;}.cls-18{fill:#ffbf55;}.cls-19{fill:#eea886;}.cls-20{fill:#5f8cc9;}.cls-21{fill:#3a3f47;}.cls-22{fill:#a77860;}.cls-23{fill:#b08439;}.cls-24{fill:#5e5853;}.cls-25{fill:#91887f;}.cls-26{fill:#6e6760;}.cls-27{fill:#807066;}.cls-28{fill:#f8c373;}.cls-29{fill:#2d3038;}.cls-30{fill:#292c47;}.cls-31{fill:#191b2b;}.cls-32{fill:#c6c9cc;}.cls-33{fill:#0f324f;}.cls-34{fill:#e54242;}.cls-35{fill:#1d3b54;}.cls-36{fill:#3f444f;}.cls-37{fill:#b8b8b8;opacity:0.1;}.cls-38{fill:#869ac2;opacity:0.3;}.cls-39{fill:#e2d2ca;}.cls-40{fill:#424773;}.cls-41{fill:#eea987;}.cls-42{fill:#e8734d;}.cls-43{fill:#363a5e;}.cls-44{fill:#313657;}.cls-45{fill:#eddad3;}.cls-46{fill:#cfbeb8;}.cls-47{fill:#494f80;}.cls-48{fill:#707070;}.cls-49{fill:#a1a1a1;}.cls-50{fill:#fae6de;}.cls-51{fill:#d6c5be;}.cls-52{fill:#828282;}.cls-53{mix-blend-mode:hard-light;}.cls-54{fill:#f5f5f5;}.cls-55{fill:#f8c5c6;}.cls-56{fill:#e2f3fe;}.cls-57{fill:#c5ccd1;}</style><linearGradient id="linear-gradient" x1="370.85" y1="526.22" x2="370.85" y2="167.22" gradientUnits="userSpaceOnUse"><stop offset="0" stop-color="#ffbf55"/><stop offset="1" stop-color="#f8c373"/></linearGradient></defs><title>Checklyst-Web Design</title><g class="cls-1"><g id="Layer_1" data-name="Layer 1"><polygon class="cls-2" points="729.48 116.69 396.53 449.64 380.15 466.02 345.17 501 264.06 582.11 13.62 331.67 74.54 270.76 149.1 345.32 220.77 416.99 264.06 460.28 307.35 416.99 571.15 153.18 668.56 55.77 729.48 116.69"/><polygon class="cls-2" points="396.53 390.87 396.53 449.64 380.15 466.02 345.17 501 345.17 390.87 396.53 390.87"/><path class="cls-3" d="M592.6,175.7v77.87L380.15,466H171.66a22.57,22.57,0,0,1-22.56-22.56V175.7a22.55,22.55,0,0,1,22.56-22.55H570c.38,0,.73,0,1.11,0A22.54,22.54,0,0,1,592.6,175.7Z"/><polygon class="cls-4" points="575.24 119.85 575.24 270.93 429.18 416.99 166.46 416.99 166.46 119.85 575.24 119.85"/><rect class="cls-5" x="166.47" y="119.85" width="408.77" height="35.89"/><rect class="cls-6" x="183.54" y="131.01" width="58.3" height="13.56" rx="6.07"/><path class="cls-7" d="M592.93,437.87h0C592.86,437.91,592.85,437.91,592.93,437.87Z"/><polygon class="cls-8" points="634.82 344.93 675.63 322.11 661.6 321.19 634.82 344.93"/><polygon class="cls-9" points="634.82 344.93 647.38 324.73 657.91 324.45 634.82 344.93"/><polygon class="cls-10" points="666.24 327.36 667.06 332.5 634.82 344.93 666.24 327.36"/><path class="cls-11" d="M99.77,312.58c-.13-1.6-.26-3.22-.37-4.82l1.11-.07c.12,1.58.24,3.2.37,4.8Zm577.76-5.08-.64-.92a44.79,44.79,0,0,0,4.6-3.81l.76.82A49.23,49.23,0,0,1,677.53,307.5ZM99,301.74c-.12-2-.21-4-.29-6l1.11,0c.08,2,.18,4,.29,6Zm587.47-2.53-.84-.73a52.57,52.57,0,0,0,3.67-4.71l.92.63A51.66,51.66,0,0,1,686.49,299.21Zm-588-9.54c0-2-.08-4.05-.09-6h1.12c0,2,0,4,.09,6Zm594.82-.52-1-.5a36.94,36.94,0,0,0,2.24-5.5l1.06.33A37.66,37.66,0,0,1,693.35,289.15ZM99.57,277.6H98.45c0-2,.06-4,.11-6l1.12,0C99.62,273.57,99.59,275.59,99.57,277.6Zm597.36-.11-1.1-.13a30.33,30.33,0,0,0,.19-3.43c0-.82,0-1.65-.1-2.47l1.11-.1c.08.85.11,1.72.11,2.57A30.36,30.36,0,0,1,696.93,277.49Zm-2.07-11.85a35.48,35.48,0,0,0-2.11-5.54l1-.48a36.36,36.36,0,0,1,2.17,5.72Zm-595-.08-1.12-.05c.1-2,.21-4,.34-6l1.11.07C100.1,261.54,100,263.56,99.9,265.56Zm589.91-10.63a52,52,0,0,0-3.58-4.77l.86-.72a55.62,55.62,0,0,1,3.65,4.87Zm-589.13-1.38-1.11-.09c.17-2,.36-4,.56-6l1.12.12C101,249.54,100.85,251.55,100.68,253.55Zm581.5-7.78-.49-.48a43.51,43.51,0,0,0-4-3.44l.68-.88a42.81,42.81,0,0,1,4.07,3.52l.5.48Zm-580.25-4.19-1.11-.14c.25-2,.53-4,.82-6l1.1.16C102.45,237.59,102.18,239.59,101.93,241.58Zm570.86-3a53.76,53.76,0,0,0-5.31-2.69l.45-1a56,56,0,0,1,5.42,2.74Zm-10.88-4.85c-1.8-.61-3.68-1.18-5.73-1.73l.29-1.08c2.08.56,4,1.13,5.8,1.75Zm-11.57-3.14c-1.77-.39-3.7-.79-5.9-1.21l.21-1.09c2.21.42,4.14.81,5.93,1.21Zm-546.66-.89-1.1-.19c.33-2,.69-4,1.07-5.94l1.09.21C104.37,225.71,104,227.7,103.68,229.68Zm534.84-1.41-1.81-.32-4.14-.74.2-1.1,4.14.74,1.8.32Zm-11.88-2.19c-2.14-.42-4.07-.83-5.92-1.25l.25-1.09c1.84.42,3.76.82,5.88,1.25Zm-11.79-2.71c-2-.54-4-1.12-5.81-1.72l.35-1.06c1.82.59,3.76,1.16,5.75,1.7Zm-11.51-3.76c-1.91-.75-3.78-1.56-5.56-2.41l.48-1c1.76.84,3.6,1.64,5.49,2.38Zm-497.4-1.75-1.09-.23c.43-2,.88-3.95,1.34-5.89l1.09.26C106.82,213.93,106.37,215.9,105.94,217.86ZM592.4,214.4c-1.75-1-3.48-2.08-5.14-3.21l.63-.92c1.63,1.11,3.34,2.17,5.07,3.16Zm-10-6.82c-1.56-1.25-3.09-2.59-4.56-4l.77-.81c1.45,1.37,3,2.69,4.49,3.92Zm-473.64-1.41-1.08-.29c.51-1.94,1.06-3.9,1.62-5.82l1.07.32C109.81,202.28,109.27,204.23,108.76,206.17Zm464.84-6.89c-1.33-1.47-2.65-3-3.9-4.62l.87-.7c1.25,1.58,2.54,3.12,3.86,4.56Zm-461.47-4.66-1.06-.34c.61-1.91,1.25-3.84,1.91-5.73l1.06.37C113.38,190.8,112.74,192.72,112.13,194.62Zm454-4.84c-1.12-1.62-2.22-3.34-3.27-5.08l.95-.58c1.05,1.73,2.14,3.42,3.24,5Zm-450-6.51-1-.4c.72-1.87,1.46-3.77,2.22-5.62l1,.42C117.54,179.52,116.8,181.4,116.09,183.27Zm443.76-3.83c-.93-1.74-1.84-3.55-2.72-5.4l1-.48c.87,1.83,1.78,3.63,2.7,5.36Zm-439.21-7.3-1-.45c.81-1.84,1.66-3.69,2.52-5.49l1,.48C122.29,168.47,121.45,170.31,120.64,172.14Zm434-3.61c-.76-1.82-1.52-3.7-2.24-5.61l1-.4c.72,1.9,1.47,3.77,2.23,5.57ZM125.8,161.28l-1-.51c.91-1.79,1.86-3.58,2.82-5.34l1,.53C127.65,157.71,126.7,159.5,125.8,161.28Zm424.58-4.05c-.63-1.86-1.26-3.8-1.85-5.75l1.07-.32c.59,1.94,1.21,3.86,1.84,5.71Zm-418.82-6.5-1-.56c1-1.74,2.07-3.48,3.12-5.18l.95.59C133.61,147.27,132.56,149,131.56,150.73Zm415.28-5c-.52-1.9-1-3.87-1.52-5.85l1.08-.26c.49,2,1,3.92,1.52,5.81Zm-408.93-5.16-.93-.61c1.11-1.67,2.26-3.35,3.42-5l.91.65C140.16,137.19,139,138.86,137.91,140.52Zm406-6.52c-.53-1.89-1.15-3.81-1.83-5.68l1.05-.38c.69,1.9,1.32,3.84,1.86,5.76Zm-399-3.29L144,130c1.21-1.61,2.46-3.21,3.71-4.78l.87.7C147.3,127.52,146.06,129.11,144.86,130.71Zm394.91-7.92c-.81-1.8-1.71-3.6-2.67-5.36l1-.53c1,1.78,1.87,3.61,2.7,5.43Zm-387.41-1.47-.85-.72c1.3-1.53,2.64-3.06,4-4.55l.83.74C155,118.28,153.65,119.8,152.36,121.32Zm8-8.93-.81-.77c1.39-1.45,2.81-2.9,4.24-4.31l.78.79C163.2,109.5,161.79,110.94,160.41,112.39Zm373.66-.12c-1.05-1.67-2.18-3.33-3.36-5l.9-.66c1.2,1.65,2.34,3.34,3.41,5ZM169,103.94l-.76-.82c1.46-1.37,3-2.73,4.48-4.06l.74.84C171.92,101.22,170.42,102.58,169,103.94ZM527,102.57c-1.24-1.53-2.57-3-3.93-4.53l.82-.76c1.38,1.5,2.72,3,4,4.58ZM178,96l-.72-.86c1.54-1.28,3.12-2.56,4.7-3.8l.69.88C181.09,93.45,179.52,94.72,178,96Zm341-2.27c-1.4-1.38-2.88-2.76-4.38-4.1l.74-.83c1.52,1.35,3,2.75,4.42,4.14ZM187.43,88.58l-.67-.9c1.61-1.19,3.25-2.38,4.89-3.53l.64.92C190.66,86.21,189,87.39,187.43,88.58ZM510,85.72c-1.53-1.25-3.12-2.49-4.73-3.7l.67-.89c1.62,1.21,3.23,2.47,4.77,3.73Zm-312.73-4-.62-.93c1.67-1.1,3.38-2.2,5.08-3.26l.59,1C200.62,79.5,198.92,80.6,197.26,81.69Zm303.12-3.18c-1.62-1.12-3.31-2.23-5-3.32l.6-.94c1.71,1.09,3.41,2.22,5,3.34ZM207.45,75.34l-.57-1c1.72-1,3.48-2,5.24-3l.55,1C210.91,73.33,209.16,74.33,207.45,75.34Zm282.8-3.29c-1.7-1-3.46-2-5.23-3l.53-1c1.78,1,3.55,2,5.26,3ZM218,69.5l-.52-1c1.78-.92,3.59-1.84,5.39-2.73l.5,1C221.53,67.67,219.73,68.58,218,69.5ZM479.7,66.27c-1.76-.9-3.58-1.79-5.4-2.65l.47-1c1.84.87,3.66,1.76,5.43,2.66ZM228.76,64.2l-.47-1c1.82-.84,3.67-1.67,5.52-2.47l.44,1C232.41,62.54,230.57,63.37,228.76,64.2Zm240.06-3.07c-1.81-.8-3.68-1.58-5.54-2.34l.42-1c1.87.77,3.74,1.56,5.57,2.36Zm-229-1.71-.42-1c1.86-.75,3.75-1.49,5.63-2.2l.4,1C243.53,57.93,241.65,58.67,239.8,59.42Zm217.87-2.83c-1.85-.7-3.76-1.4-5.65-2.06l.37-1.06c1.9.67,3.81,1.37,5.68,2.07ZM251.06,55.15l-.37-1c1.89-.67,3.81-1.33,5.72-2l.35,1.06C254.86,53.83,252.94,54.49,251.06,55.15Zm195.25-2.54c-1.89-.62-3.82-1.22-5.74-1.79l.32-1.07c1.93.57,3.87,1.18,5.77,1.79ZM262.5,51.39l-.32-1.07c1.91-.58,3.86-1.16,5.8-1.7l.3,1.07C266.35,50.24,264.41,50.81,262.5,51.39Zm172.28-2.24c-1.92-.52-3.88-1-5.82-1.53l.27-1.08c1.95.49,3.92,1,5.85,1.54Zm-160.69-1L273.81,47c1.94-.5,3.91-1,5.87-1.45l.26,1.08C278,47.14,276,47.62,274.09,48.12Zm149-1.91c-1.95-.45-3.93-.88-5.89-1.29l.23-1.09c2,.41,4,.84,5.91,1.29Zm-137.3-.87-.24-1.09c2-.42,3.95-.83,5.92-1.21l.21,1.09C289.74,44.52,287.76,44.92,285.81,45.34Zm125.51-1.59c-2-.37-4-.72-5.93-1l.18-1.1c2,.33,4,.68,5.95,1ZM297.62,43l-.19-1.1c2-.34,4-.67,6-1l.17,1.1C301.58,42.37,299.58,42.7,297.62,43Zm101.82-1.28c-2-.29-4-.56-6-.82l.14-1.1c2,.25,4,.53,6,.82Zm-89.93-.56-.15-1.1c2-.27,4-.52,6-.75l.13,1.11C313.5,40.69,311.49,40.94,309.51,41.2Zm78-1c-2-.22-4-.42-6-.6l.1-1.11c2,.18,4,.38,6,.6Zm-66-.41-.11-1.11c2-.2,4-.37,6-.52l.09,1.11C325.46,39.46,323.45,39.64,321.46,39.83Zm54-.67c-2-.14-4-.26-6-.37l.05-1.11c2,.1,4,.23,6,.37Zm-42.06-.26-.06-1.11c2-.12,4-.22,6-.3l0,1.12C337.45,38.69,335.43,38.79,333.44,38.9Zm30-.37c-2-.06-4-.11-6-.14l0-1.12c2,0,4,.08,6,.15Zm-18-.11,0-1.11c2-.05,4-.07,6-.08v1.12C349.45,38.36,347.43,38.38,345.44,38.42Z"/><path class="cls-12" d="M760.63,150.78a34.77,34.77,0,0,0-29.74,62.86c.71.33,1.42.64,2.14.92a34.36,34.36,0,0,0,9.93,2.31,34.77,34.77,0,0,0,17.67-66.09Zm8.69,42.58a26,26,0,0,1-33.1,13.11c-.54-.22-1.08-.45-1.61-.7a26.07,26.07,0,1,1,34.71-12.41Z"/><path class="cls-13" d="M722.67,194.31l-7.7,4a34.79,34.79,0,0,1,5.48-40l6.33,6a26.12,26.12,0,0,0-4.11,30Z"/><path class="cls-14" d="M736.22,206.47,733,214.56c-.72-.28-1.43-.59-2.14-.92A34.64,34.64,0,0,1,715,198.35l7.7-4a26,26,0,0,0,11.94,11.46C735.14,206,735.68,206.25,736.22,206.47Z"/><path class="cls-14" d="M743,216.87a34.36,34.36,0,0,1-9.93-2.31l3.19-8.09a25.86,25.86,0,0,0,7.44,1.73Z"/><polygon class="cls-14" points="735.08 239.79 670.16 239.79 670.16 238.5 733.79 238.5 733.79 210.99 735.08 210.99 735.08 239.79"/><rect class="cls-11" x="670.16" y="225.07" width="34.17" height="7.74"/><rect class="cls-11" y="112.11" width="6.78" height="44.98"/><rect class="cls-11" x="16.84" y="121.25" width="6.78" height="35.84"/><rect class="cls-11" x="33.68" y="114.52" width="6.78" height="42.56"/><rect class="cls-11" x="50.52" y="127.8" width="6.78" height="29.29"/><rect class="cls-11" x="67.36" y="115.9" width="6.78" height="41.18"/><rect class="cls-11" x="84.21" y="109.7" width="6.78" height="47.39"/><rect class="cls-11" x="101.05" y="107.11" width="6.78" height="49.98"/><rect class="cls-15" y="128.87" width="6.78" height="28.22"/><rect class="cls-15" x="16.84" y="134.6" width="6.78" height="22.48"/><rect class="cls-15" x="33.68" y="130.38" width="6.78" height="26.7"/><rect class="cls-15" x="50.52" y="138.71" width="6.78" height="18.37"/><rect class="cls-15" x="67.36" y="131.25" width="6.78" height="25.84"/><rect class="cls-15" x="84.21" y="127.36" width="6.78" height="29.73"/><rect class="cls-15" x="101.05" y="125.73" width="6.78" height="31.35"/><rect class="cls-16" x="113.51" y="41.94" width="39.2" height="5.66"/><rect class="cls-16" x="113.51" y="52.41" width="55.61" height="5.66"/><path class="cls-12" d="M818,116a26.35,26.35,0,0,0-49.63,17.74c.2.56.42,1.11.65,1.65A26.35,26.35,0,0,0,818,116Zm-18.16,27.47a19.76,19.76,0,0,1-21.71-5.8,19.53,19.53,0,0,1-3.06-4.91c-.18-.41-.34-.82-.49-1.24a19.76,19.76,0,1,1,25.26,11.95Z"/><path class="cls-13" d="M774.35,119l-6.3-2a26.41,26.41,0,0,1,24.37-18.5l.19,6.6A19.77,19.77,0,0,0,774.35,119Z"/><path class="cls-5" d="M775.09,132.8,769,135.43c-.23-.54-.45-1.09-.65-1.65a26.27,26.27,0,0,1-.34-16.72l6.3,2a19.68,19.68,0,0,0,.25,12.54C774.75,132,774.91,132.39,775.09,132.8Z"/><path class="cls-14" d="M773.13,142a26.17,26.17,0,0,1-4.09-6.56l6.05-2.63a19.53,19.53,0,0,0,3.06,4.91Z"/><rect class="cls-9" x="242.4" y="204.21" width="206.03" height="7.18"/><rect class="cls-9" x="242.4" y="227.6" width="206.03" height="7.18"/><rect class="cls-9" x="242.4" y="250.16" width="206.03" height="7.18"/><rect class="cls-9" x="242.4" y="273.54" width="206.03" height="7.18"/><rect class="cls-9" x="242.4" y="299.81" width="206.03" height="7.18"/><rect class="cls-9" x="242.4" y="323.19" width="206.03" height="7.18"/><rect class="cls-9" x="242.4" y="345.75" width="206.03" height="7.18"/><rect class="cls-9" x="242.4" y="369.14" width="206.03" height="7.18"/><rect class="cls-5" x="195.16" y="198.06" width="29.24" height="29.24" rx="13.08"/><rect class="cls-5" x="195.16" y="289.7" width="29.24" height="29.24" rx="13.08"/><path class="cls-4" d="M208.78,311.39l-8.12-7.05a1.6,1.6,0,1,1,2.1-2.41l5.73,5,8.16-9.12a1.6,1.6,0,1,1,2.38,2.13Z"/><rect class="cls-5" x="195.16" y="243.7" width="29.24" height="29.24" rx="13.08"/><path class="cls-4" d="M208.78,265.39l-8.12-7.05a1.6,1.6,0,1,1,2.1-2.41l5.73,5,8.16-9.12a1.59,1.59,0,1,1,2.38,2.12Z"/><rect class="cls-5" x="195.16" y="335.71" width="29.24" height="29.24" rx="13.08"/><path class="cls-4" d="M208.78,357.39l-8.12-7.05a1.6,1.6,0,1,1,2.1-2.41l5.73,5,8.16-9.13a1.6,1.6,0,1,1,2.38,2.13Z"/><path class="cls-4" d="M206.36,214.91a7.66,7.66,0,0,1,.08-1.09,3.46,3.46,0,0,1,.28-1,3.05,3.05,0,0,1,.61-.9,4.07,4.07,0,0,1,1-.77l.86-.46a10.52,10.52,0,0,0,1-.65,4.43,4.43,0,0,0,.87-.86,1.71,1.71,0,0,0,.38-1.07,1.52,1.52,0,0,0-.6-1.28,2.18,2.18,0,0,0-1.36-.45,2.07,2.07,0,0,0-.88.18,3.15,3.15,0,0,0-.69.45,2.65,2.65,0,0,0-.53.58l-.4.57-2.54-1.78a4.82,4.82,0,0,1,2-2.35,6,6,0,0,1,3.15-.84,6.78,6.78,0,0,1,1.88.27,4.78,4.78,0,0,1,1.68.86,4.44,4.44,0,0,1,1.21,1.54,4.92,4.92,0,0,1,.47,2.27,4.42,4.42,0,0,1-.58,2.36,5.11,5.11,0,0,1-1.72,1.67,9.32,9.32,0,0,1-1,.62,10.1,10.1,0,0,0-1,.57,2.86,2.86,0,0,0-.71.67,1.47,1.47,0,0,0-.27.89Zm.08,6.06v-3.71h3.24V221Z"/><path class="cls-17" d="M289,192.18a33.81,33.81,0,0,0-5.13,6c-2.42,3.64-8.85,3.83-9.13,8.79s8.75,5.12,13.48,3.5,5.46-6.46,8.32-7.67,4.35-2.2,4.13-4.56a28.73,28.73,0,0,0-1.8-6.2,20.38,20.38,0,0,1-2.83.68A23.66,23.66,0,0,1,289,192.18Z"/><path class="cls-18" d="M321.5,57.76s-1.82,10.8-3.28,17.93h0a42.58,42.58,0,0,1-1.46,5.9c-.42.9-3.83,4.56-8,8.86-7.31,7.53-17,17-17,17L288,100.29s8.59-10.07,14.41-16.78c2.69-3.11,4.79-5.5,5.18-5.85,1.22-1.08,2.63-11.81,4.61-20.65s6-13.72,6-13.72Z"/><path class="cls-19" d="M308.76,90.45c-7.31,7.53-17,17-17,17L288,100.29s8.59-10.07,14.41-16.78A12.18,12.18,0,0,1,308.76,90.45Z"/><path class="cls-17" d="M355.68,189.23s2.49,2.74,4,4.41,7.1,4.64,7.13,9.59c0,5.36-4.16,4.89-7.88,4.7a10.28,10.28,0,0,1-8.31-5.81c-1.57-3-5.74-3.83-6-6.28s1.94-6.86,1.94-6.86Z"/><path class="cls-20" d="M347,184.41l-.48,4.57s7.77,3.39,9.2.25l-.33-4.07Z"/><path class="cls-20" d="M289.46,188.88l-.42,3.3a16.31,16.31,0,0,0,9.87-.14l.1-2.94Z"/><path class="cls-18" d="M356.12,106c.27,1-49.74,0-49.74,0s13.84-10.07,14.73-12.76S317.59,74.41,317,69.16c-.47-4.2-1.62-23,1.15-25.87s13.32-6.15,13.32-6.15l15.2.56a24.15,24.15,0,0,1,4.3,1.36c1.79.83,12.05,4.49,13.72,9.61s-10.24,21.6-10.24,21.6,0,.74-.06,2h0c0,1.62-.11,4.08-.17,6.74-.08,3.46-.15,7.26-.15,10A99.32,99.32,0,0,0,356.12,106Z"/><path class="cls-7" d="M356.12,106s6.81,10,6.9,16.81-2.52,25.74-2.71,29.48-3.71,35-3.71,35-2.73,2.53-10.89-.64c0,0-1.8-29.61-2-32.78s-.19-17.77-2-19.88-12.88-8.74-14.32-10-26.54,4.74-29.17,5.42c-6.81,1.77-3.71,13.62-2.2,18.93,2.52,8.89,4.72,41,4.72,41s-4.85,2.07-13,.32c0,0-15.95-58-16.46-63.72s-.77-15.27,38.55-22.5Z"/><path class="cls-19" d="M335.66,4.11s-13.19-3-10.18,13.63,6.19,17.91,14.15,14.48,7.24-14.08,7.65-19.29S339.87,4.3,335.66,4.11Z"/><path class="cls-19" d="M332.17,41.4s5.84,6.2,15.08.57c0,0-2.07-13.43-1-20s-12,10.13-12,10.13c.17.09.29.72.31,1.61a17,17,0,0,1-.13,2.66C334.12,38.57,333.45,40.87,332.17,41.4Z"/><path class="cls-19" d="M342.74,15.54c.17-1.46,3.07-2,3.3.2s-1.32,6-2.42,5.67S342.5,17.56,342.74,15.54Z"/><path class="cls-21" d="M346.63,21.45s-.34-5.24-2.25-5.4-2.2,1.94-2.2,1.94l-1.93.37s.61-4.59-1.3-5.39-12.36,2.53-13.9,1.18-.81-10.65,2-11.92,10.42-4.13,16-.33c0,0,4.37-.5,5,3S347.82,18.82,346.63,21.45Z"/><path class="cls-22" d="M334.4,36.4c9.52-2.94,10.24-8.68,10.25-8.77-3.14,5.39-10.12,6.11-10.12,6.11A17,17,0,0,1,334.4,36.4Z"/><path class="cls-19" d="M351.15,39.13s-7,13.89-18.25,13-1.92-14.86-1.41-15S343.05,34.26,351.15,39.13Z"/><path class="cls-18" d="M300.66,105.3s34.54,4.26,55.46.7l-40-5S315.91,102,300.66,105.3Z"/><path class="cls-19" d="M326.49,99.44l-2.57,1.3s.59,4.09,2,5.32l2.88-.73S328.2,100.84,326.49,99.44Z"/><path class="cls-18" d="M366.46,91.07c-.52.59-7.31,3.32-15,6.28h0c-10.48,4-22.3,7.85-22.3,7.85l-2.69-5.76S338.87,92.71,347.24,88c3.95-2.23,7-4,7.43-4.42,1.35-1.28,1.7-3.33.71-6.91s-3.27-20-3.52-22,.64-7,5.44-7.3,7.25,1.1,7.25,1.1,1.2.5,2.1,12.15S367.68,89.66,366.46,91.07Z"/><path class="cls-23" d="M354.41,72.22h0c0,1.62-.11,4.08-.17,6.74-4.69-11.49-2-20.66-1.94-20.81C351.8,61.27,354.38,72.07,354.41,72.22Z"/><path class="cls-23" d="M318.22,75.69h0a42.58,42.58,0,0,1-1.46,5.9c-1.6-7.75-.16-17.67-.16-17.67A100.16,100.16,0,0,0,318.22,75.69Z"/><path class="cls-19" d="M351.48,97.35h0c-10.48,4-22.68,8-22.68,8l-2.31-5.89S338.87,92.71,347.24,88C347.24,88,350.28,89.47,351.48,97.35Z"/><polygon class="cls-24" points="325.75 105.67 276.66 104.95 301.44 117.53 325.75 105.67"/><polygon class="cls-25" points="301.44 117.53 325.75 108.12 325.75 105.67 299.52 115.13 301.44 117.53"/><path class="cls-19" d="M324.48,100.83s-3.07-.48-5.19-1c-1.64-.38-5.72.14-6.76,1.19s-4.34,8.39-5,8.84.32,1.48,1.41,1c0,0,1,3.21,3.5,2s4.17-3.83,5.47-4.29,8.89-2.79,8.89-2.79S326.43,100.05,324.48,100.83Z"/><path class="cls-19" d="M313.28,100.57A20.41,20.41,0,0,0,310.8,102c-.52.42-2.6,2-3.1,2.35s.76,1.41,4.48-.2S313.28,100.57,313.28,100.57Z"/><polygon class="cls-26" points="301.44 117.53 286.84 77.66 239.77 78.43 253.69 115.17 301.44 117.53"/><path class="cls-27" d="M271.78,95.3c1.44,2.87,1,6-1,7s-4.73-.55-6.17-3.42-1-6,1-7S270.35,92.43,271.78,95.3Z"/><rect class="cls-11" x="461.75" y="267.84" width="21.44" height="6.46" rx="1.17"/><rect class="cls-11" x="461.75" y="283.34" width="21.44" height="6.46" rx="1.17"/><rect class="cls-11" x="461.75" y="298.83" width="21.44" height="6.46" rx="1.17"/><rect class="cls-11" x="461.75" y="314.33" width="21.44" height="6.46" rx="1.17"/><rect class="cls-11" x="461.75" y="329.83" width="21.44" height="6.46" rx="1.17"/><rect class="cls-11" x="461.75" y="345.32" width="21.44" height="6.46" rx="1.17"/><rect class="cls-11" x="492.05" y="267.84" width="6.1" height="6.46" rx="1.17"/><rect class="cls-11" x="492.05" y="283.34" width="6.1" height="6.46" rx="1.17"/><rect class="cls-11" x="492.05" y="298.83" width="6.1" height="6.46" rx="1.17"/><rect class="cls-11" x="492.05" y="314.33" width="6.1" height="6.46" rx="1.17"/><rect class="cls-11" x="492.05" y="329.83" width="6.1" height="6.46" rx="1.17"/><rect class="cls-11" x="492.05" y="345.32" width="6.1" height="6.46" rx="1.17"/><path class="cls-28" d="M493.9,352.92s-9.16-20.77,1.47-19.05A38.86,38.86,0,0,1,502.7,343c2.82,4.62,8.67,16.84,8.45,21s-3.16,7.22-6.33,13.85c0,0-6.6,12.32-6.88,13.81L491,388s5.91-11.78,10.07-22.14Z"/><rect class="cls-2" x="404.22" y="375.91" width="123.92" height="18.95" transform="translate(71.76 -73.18) rotate(9.72)"/><rect class="cls-29" x="399.2" y="367.24" width="5.95" height="14.38" transform="translate(68.54 -62.18) rotate(9.66)"/><path class="cls-19" d="M440.85,528.82h-1.73s.58-6.53-1-6.6-5.57,5.32-7.94,6.15-14.54,1.54-14.6-.7,4.67-3.14,6.14-3.78,8.65-7.62,9.93-8.45,3.46-6.62,3.46-6.62l6.8-.3s.38,5.41.79,8.27a24.47,24.47,0,0,1,.28,2.68C443,521.9,440.85,528.82,440.85,528.82Z"/><path class="cls-19" d="M484.6,527.53h-1.44v-6.08c-1.2.1-5.24,3.92-6.49,5s-3,1.06-8.22,1.39-5.75-2.81-4.92-3.88,3.52-1.54,4.92-2.21,6.93-6.9,8.4-8.37,2.37-5.7,2.37-5.7l6.15.54a37.66,37.66,0,0,0,.66,7.1h0v0c.06.28.13.55.2.81C487.14,519.54,484.6,527.53,484.6,527.53Z"/><path class="cls-30" d="M461.87,389.74a62.17,62.17,0,0,0-2.53,6.88c-.2,1.39-5.64,14.53-7.21,23.39-.94,5.31-3.54,21.92-3.75,24-.37,3.61-2.07,11.59-2.33,15.28-.15,2.07-10.31,33.74-12.77,50.28,0,0,5.85.86,10.24-.3A173.19,173.19,0,0,0,457.39,468c3-14.6,5.63-22.39,7.94-28.4s15.4-23,16.77-25,9.93-12.48,1.82-23.94S461.87,389.74,461.87,389.74Z"/><path class="cls-30" d="M491.14,438.4c-.74,4.93,0,11.41,1.59,29.44S490,507.7,490,507.7c-5.35,1.83-11.51,0-11.51,0,.14-1.27,0-43.95,0-47.75s-1.09-8.12-1.37-12.49c-.2-3-1.58-8.46-3.14-14.06-.46-1.68-.95-3.36-1.42-5h0l-.77-2.68c-2.19-7.61-5.14-37-5.14-37S483,375.57,491,388s3.87,21.41,3.59,23S491.88,433.47,491.14,438.4Z"/><path class="cls-31" d="M484.36,411.9c-.13.29-8.27,18.37-10.37,21.5-.46-1.68-.95-3.36-1.42-5h0S484.09,412.3,484.36,411.9Z"/><path class="cls-32" d="M484.6,527.53h-1.44v-6.08c-1.2.1-5.24,3.92-6.49,5s-3,1.06-8.22,1.39-5.75-2.81-4.92-3.88,3.52-1.54,4.92-2.21c5.63.3,12.5-7.61,15.79-7.59,1.75,0,1.73,1,1.79,1.16h0v0c.06.28.13.55.2.81C487.14,519.54,484.6,527.53,484.6,527.53Z"/><path class="cls-32" d="M440.85,528.82h-1.73s.58-6.53-1-6.6-5.57,5.32-7.94,6.15-14.54,1.54-14.6-.7,4.67-3.14,6.14-3.78c5,0,13.18-5.53,15.71-6.65a9.15,9.15,0,0,1,5.27-.45,24.47,24.47,0,0,1,.28,2.68C443,521.9,440.85,528.82,440.85,528.82Z"/><path class="cls-19" d="M476.3,320.79s2.61,6.9.58,12.23c0,0,9.57-.62,9.93-1.74s-.38-11.46.93-14.51S476.3,320.79,476.3,320.79Z"/><path class="cls-28" d="M475.38,330.69s-5.65,2-8.21,2.57-7.89,3.08-7.46,12.61a200.08,200.08,0,0,0,2.61,21.89c.58,4.1.22,14.52-.72,19.58a71.52,71.52,0,0,0,29.49,0s-2.83-8.63-2.76-10.87,9.42-20.62,9.86-23.52,2.32-15.71-2-18.54-7.75-2.46-9.56-3.72S478,329.78,475.38,330.69Z"/><path class="cls-28" d="M497.19,402.32c-23.15,6.14-41.57,0-41.57,0a57.74,57.74,0,0,0,3.81-10.23h0a61.66,61.66,0,0,0,1.42-6.86h0a62,62,0,0,0-.57-22.27c2.67-22,36-28.56,38.62-21.59s-5.17,36.93-5.56,39.5S497.19,402.32,497.19,402.32Z"/><path class="cls-19" d="M484.64,293.09c-3.84-1.31-14.24-2.72-16.9,13.24s3.14,16.22,9.1,15.77,15.27-11.22,16-14.5S495.61,296.86,484.64,293.09Z"/><path class="cls-33" d="M469.88,299.22s3.18,6.79,7.34,9.16c0,0,2.61,7.22,8.26,10.14,0,0,15-9.93,6.29-21.74S470.86,294.38,469.88,299.22Z"/><path class="cls-19" d="M476.85,306c.34-.83,2.59-2.18,3.6.09s-2.62,6.29-3.61,6.08S475.57,309.18,476.85,306Z"/><path class="cls-33" d="M491.27,298.61c.32-.51,10.25-5.11,12.32,4.49s-8,20.77-9.76,25.58.79,16.05.79,16.05S488.57,339,486.74,333C484.73,326.44,484.05,309.86,491.27,298.61Z"/><path class="cls-34" d="M491.77,298.28a10,10,0,0,0-3.43,6.2s-.57-3,.65-4.77A2.74,2.74,0,0,1,491.77,298.28Z"/><path class="cls-35" d="M459.43,392.1c.63-2.35,1.45-7.51,1.78-9.72h0a5.53,5.53,0,0,0,1.68-1.94c.5-1.56,4.35-20.62,4.35-20.62S471.3,377.73,459.43,392.1Z"/><path class="cls-19" d="M442.77,387.47s-4.14,1.92-5.1,2.22-2.83-1.34-9.68-1.85c-.61,0-1.66.5-1.42,1.29s3.24,3,4.51,3.29,7.31,2.72,10.24,1.55,4.93-4.91,4.93-4.91Z"/><path class="cls-28" d="M465.58,333.78s-7.93,3.14-8.4,14.16-.9,16.77-1.33,18.47-1.25,8.54-3.25,12.65-14.68,10.3-14.68,10.3l3.87,4.93s20-10.6,21.11-13.85,5.5-25.86,5.85-29.67C469,347.7,473.09,334,465.58,333.78Z"/><path class="cls-36" d="M390.77,362.24l-.06.88h11.35c0-.29,0-.59,0-.88ZM264.22,359.1c0,.35,0,.68,0,1,0,1.43.09,2.86.21,4.27a66.67,66.67,0,0,0,1.92,11.79,68.58,68.58,0,0,0,18.12,31.72c.34.35.67.67,1,1,1.35,1.3,2.77,2.55,4.23,3.73a68.63,68.63,0,0,0,43.48,15.44H334a68.53,68.53,0,0,0,34.28-9.59,69.11,69.11,0,0,0,30.28-37.37q.81-2.43,1.46-4.92a69.26,69.26,0,0,0,1.67-9.13h0c.08-.66.15-1.32.2-2s.11-1.28.14-1.93c0-.29,0-.59,0-.88,0-.66,0-1.3.06-1.95,0-.4,0-.79,0-1.19a69,69,0,0,0-58.49-68.17c-.64-.11-1.28-.2-1.93-.28s-1.42-.16-2.14-.22l-1.93-.16c-1.49-.1-3-.14-4.48-.14-1.27,0-2.53,0-3.78.1-2.15.12-4.27.34-6.36.64a69.09,69.09,0,0,0-53.24,41c-.1.23-.19.46-.28.68a6.92,6.92,0,0,0-.27.65q-.79,1.92-1.44,3.87a67.68,67.68,0,0,0-2.63,10.47c-.17,1-.3,1.9-.44,2.87,0,.16,0,.33-.05.5,0,0,0,0,0,0a1.94,1.94,0,0,0,0,.24,2.89,2.89,0,0,0,0,.29v.07a.59.59,0,0,0,0,.14,1.64,1.64,0,0,0,0,.22c0,.17,0,.34-.05.52-.1,1-.18,2.12-.23,3.19a3.25,3.25,0,0,0,0,.44l0,.7C264.23,357.52,264.22,358.31,264.22,359.1Zm15.46,21.46-.26-.67c-.2-.5-.38-1-.56-1.51l-.42-1.22c-.1-.3-.21-.61-.3-.91,0,0,0,0,0-.06a1.67,1.67,0,0,1-.05-.18c-.16-.51-.3-1-.45-1.54l-.16-.6c-.15-.55-.28-1.11-.42-1.67,0-.05,0-.12,0-.18-.11-.52-.22-1-.32-1.55-.05-.22-.09-.43-.13-.64-.13-.66-.24-1.32-.34-2-.18-1.16-.32-2.33-.43-3.51,0-.4-.07-.8-.1-1.21,0,0,0,0,0,0s0-.25,0-.39c0-.55-.06-1.1-.08-1.64v-.17c0-.12,0-.25,0-.38,0-.48,0-1,0-1.44s0-.89,0-1.33a48.6,48.6,0,0,1,.37-5.29,4.87,4.87,0,0,1,.06-.55,0,0,0,0,1,0,0s0,0,0,0a0,0,0,0,1,0,0,.45.45,0,0,1,0-.12v0s0,0,0,0a57.3,57.3,0,0,1,8.55-23.57,57.88,57.88,0,0,1,20.93-19.57,55.74,55.74,0,0,1,7-3.26c.76-.29,1.54-.58,2.33-.83a56.26,56.26,0,0,1,13.74-2.8c1.53-.13,3.07-.19,4.62-.19.47,0,.93,0,1.4,0l1.6,0,1.16.08.32,0c.64,0,1.29.1,1.93.17l.49.06.77.11c.3,0,.59.07.88.12.65.09,1.29.2,1.93.31l.18,0,1.49.31.09,0,.62.14c.47.1.93.22,1.39.34a5.84,5.84,0,0,1,.6.15l1.59.45c.5.14,1,.3,1.5.47l.69.23c1,.34,2,.7,2.95,1.1l.8.32,1.21.53c.32.15.65.29,1,.45l1.41.68c.53.27,1.05.54,1.56.83s1.16.64,1.73,1c1.18.7,2.32,1.43,3.44,2.2.47.33.94.66,1.41,1s1.16.85,1.72,1.3l1.49,1.22c.5.43,1,.86,1.48,1.31a57.49,57.49,0,0,1,18.85,42.63c0,.4,0,.79,0,1.19,0,.65,0,1.29-.07,1.95l-.06.88c0,.65-.1,1.29-.17,1.93-.18,1.83-.46,3.64-.81,5.42a57.71,57.71,0,0,1-1.46,5.72c-.46,1.48-1,2.95-1.55,4.37a57.73,57.73,0,0,1-18.41,24.27,59,59,0,0,1-6.07,4.08A57.31,57.31,0,0,1,334,416.74h-.83a57.64,57.64,0,0,1-50.93-30.6l-.75-1.47-.45-.93c-.18-.37-.34-.74-.51-1.11l-.17-.37c-.14-.33-.28-.65-.42-1Z"/><circle class="cls-37" cx="333.2" cy="359.1" r="57.44" transform="translate(-139.19 488.81) rotate(-62.5)"/><path class="cls-38" d="M372,316.46s-74.82-9.27-89.72,69.69h0A57.66,57.66,0,0,1,372,316.46Z"/><polygon class="cls-30" points="122.38 423.81 147.38 437.55 172.49 398.05 142.12 387.5 122.38 423.81"/><polygon class="cls-39" points="123.97 422.62 147.35 435.47 170.82 398.53 142.43 388.67 123.97 422.62"/><path class="cls-19" d="M115.41,415.71s4.35-2.08,6.26-3.16,6.82-2.58,7.22-2.94,14.56-1.23,15.42-2,1.69,1.74-2,2.54-8.78,2.77-9.06,4.21,3.77,1.77,4.18,2.95-.11.92-.69,1.18-4.82-2.1-6.68-1.43-4.71-.26-6.14.23l-8.38,2.83Z"/><path class="cls-19" d="M148.6,432.59s3.66-3.29,5.42-4.66,5.09-5.43,5.58-5.66,6.83-13.25,7.86-13.77-1-2.27-3.16.88-6,7.19-7.49,6.9-.21-4.25-1.16-5.1-.91-.24-1.38.2.1,5.36-1.25,6.86-1.6,4.54-2.61,5.69l-5.92,6.79Z"/><path class="cls-40" d="M69.88,608.43s-.79,5.49-.89,6.32-8.79-.49-8.79-.49l-.71-6.53S68.79,607.66,69.88,608.43Z"/><path class="cls-30" d="M69.08,614.05a23.8,23.8,0,0,0,5.42,4.75c2.67,1.44,6.86,2,8.43,3.5,1.14,1.08,4.15,5.71-6.92,5.62s-16.41.66-17.59-1.12,1.71-13.12,1.71-13.12S62.75,614.62,69.08,614.05Z"/><path class="cls-40" d="M132.2,608.43s-.8,5.49-.89,6.32-8.8-.49-8.8-.49l-.7-6.53S131.11,607.66,132.2,608.43Z"/><path class="cls-30" d="M131.4,614.05a23.56,23.56,0,0,0,5.42,4.75c2.66,1.44,12.47,2.62,14.05,4.11,1.14,1.08,3,5.42-12.55,5-11.06-.29-16.4.66-17.59-1.12s1.72-13.12,1.72-13.12S124.92,614.68,131.4,614.05Z"/><path class="cls-30" d="M77.08,467.41s-8.17,13-7.56,24.72-3,24.55-4.19,36.81c-1.37,13.67-7,46-7.17,53.34s.87,30.65.87,30.65l11.21.26s9.41-56.57,11.85-62.34S96.62,503.93,97,499.31,77.08,467.41,77.08,467.41Z"/><path class="cls-30" d="M120.1,469.17s6.16,32.17,7,39.35,1.36,34.76,1.76,39.25,2.71,58.75,4.88,65.42H119.38s-11-39.45-11-58.11-8.5-40.57-14-52.88-18-12.61-21.42-35.45C73,466.75,115.53,461.92,120.1,469.17Z"/><path class="cls-19" d="M90.72,358.25s11-4.09,16,4.26,4.57,25.06-.95,27.12-13.84,1-16.67-4.25-5.38-12.77-5.26-17.82S87.84,359.71,90.72,358.25Z"/><path class="cls-19" d="M104.6,390s-.46,3,.29,4.42-14.21,1.5-14.21,1.5a98.34,98.34,0,0,0-3.51-14.64C84.86,374.58,104.6,390,104.6,390Z"/><path class="cls-21" d="M87.17,381.29s1,1.7,5.24,1,9.36-6.27,11.12-6.89,1.78-1.65,1.78-1.65l1.1,1.61,1.87.12s-1.7-5,.87-7.06S106.48,352.22,93,356.94c0,0-10.39,2.87-10,8.77S84.84,378.35,87.17,381.29Z"/><path class="cls-39" d="M105.78,394.25s0-2.78-1.31-3.05-13.94-1.49-15.5-.88v3.25S92,395.41,105.78,394.25Z"/><path class="cls-19" d="M105,371.65c-.23-1-2.75-3.83-3.72-.79s1.46,7.1,2.81,6.76S105.63,374.16,105,371.65Z"/><path class="cls-7" d="M156.11,427.19h0C156.18,427.22,156.19,427.23,156.11,427.19Z"/><path class="cls-7" d="M67.86,498.34a116.49,116.49,0,0,0,18.2,3.25c11.47,1.26,40.13-.46,40.31-1.82s-6.16-50.46-5.8-53,.55-11.54.55-11.54c.14,2.47,2.66,12.56,5.7,18.06,1.09,2,4.77,8.21,6.55,6.79,8.58-6.85,21.88-32.69,22.72-32.9-.71-.31-6.3-2.89-7.08-3.15s-6.88,6.33-10.64,10.4c-1.67,1.81-2.86,3.12-2.86,3.12-1.08-2.43-5-17.8-6.26-23.11-2.76-12-2.34-12.49-2.34-12.49-8.39-2.54-21.13-7.71-21.13-7.71L89,393.57s-15.42,3.39-21.5,6.14c-.57.26-.57,13.76-2.16,17.3l5,10.63s2.91,21,3.51,30.4C74.14,462.34,67.86,498.34,67.86,498.34Z"/><path class="cls-7" d="M64.62,434.54c.43,1.41,2.43,2.61,3.72,3.14A4.9,4.9,0,0,0,71,438l.66-.13h0l11.52-2.13s2.52-29-15.74-36C67,399.87,60.58,421.54,64.62,434.54Z"/><path class="cls-17" d="M68.34,437.67h0A4.9,4.9,0,0,0,71,438l.66-.13h0L70.56,423Z"/><path class="cls-17" d="M135.51,437.56l1.41,6s1.53-6,1.45-9.09C136.7,436.25,135.51,437.56,135.51,437.56Z"/><path class="cls-21" d="M87.59,359.24s-14.37-1.66-.24,22.35Z"/><polygon class="cls-30" points="160.93 395.93 162.39 393.42 150.88 389.44 149.42 391.94 160.93 395.93"/><path class="cls-41" d="M306.62,418.66s2.28-2.12,1.82-3.7a6.91,6.91,0,0,1,.34-3.48c.2-.83.27-3.52.89-3.37,1.05.25.81,4.55.94,5.46s2.9-2.15,3.84-2.31,5.76,4.72,3.62,6.6-5.1,2.65-5.42,3.05a16.12,16.12,0,0,1-1.78,1.52Z"/><path class="cls-41" d="M313.85,411.58s6.95-5.32,7.71-5.29,1,.43.39.95-6.56,5.34-6.56,5.34,9.28-4.92,9.91-5c.37-.06.65.64.34.95s-8.95,5.75-8.95,5.75,8.67-4.58,9.22-4.52a.67.67,0,0,1,.21,1.24c-.62.39-8.43,5.09-8.43,5.09s6.53-2.93,7-2.6c.27.2.64.65-1.06,1.35a61.51,61.51,0,0,0-5.42,3Z"/><path class="cls-42" d="M258.36,354.43S275,353,274.52,370.53s-3.23,20.11,0,32.46-16.2-7-16.2-7Z"/><path class="cls-43" d="M207.73,616.08s-6.17,8.67-5.32,10,7.33,1.57,11.28,0,4.05-11.73,5.83-16.09c.75-1.83-.85-7.23-3.1-7.62a9.15,9.15,0,0,0-4.7.76S214.05,609.32,207.73,616.08Z"/><path class="cls-19" d="M211.68,603.1a41.94,41.94,0,0,0-1.77,7.22c-.4,2.92-4.4,9.13-4.21,9.91s5.26,1.5,7.33-.53,3.4-7.91,3.86-11.43a28.76,28.76,0,0,1,1-4.9S213.65,600.94,211.68,603.1Z"/><path class="cls-43" d="M261.44,616.22s-5.95,8.53-5.1,9.9,7.34,1.57,11.29,0,4-11.73,5.83-16.09c.75-1.83-.85-7.23-3.1-7.62a9.79,9.79,0,0,0-4.9.84S267.77,609.46,261.44,616.22Z"/><path class="cls-19" d="M265.46,603.25a60.51,60.51,0,0,1-1.22,6.87c-.75,2.85-4.79,9.33-4.61,10.11s5.27,1.5,7.34-.53,3.67-7.88,3.86-11.43a20,20,0,0,0-.47-5.86S267.44,601.09,265.46,603.25Z"/><path class="cls-44" d="M235.74,462.12s-5.3,25.7-6.51,32.18-4.62,37.81-5,43.14-5.52,25.42-5.28,27.32-8.38,39.64-8.38,39.64,6.11.66,8.54-.36c1.67-.7,15-34.73,15-44.25,0-13.15,7.34-30.33,8.41-33.33C253.06,497,255,490,256.45,488.22c0,0,.22,2.4.71,6.39.58,4.6,3.08,37.4,4.17,41.72s.25,18.91.86,26.27,1.73,40.93,1.73,40.93,5.49.24,7.91-1.2c.81-.48,3.61-36.08,3.73-44.83s.25-20.84.49-24.62c2.25-36.29,7.79-41.47-.93-67.15C258.79,417.64,235.74,462.12,235.74,462.12Z"/><polygon class="cls-43" points="219.69 609.26 219.69 618.34 218.56 618.34 218.56 611.32 219.69 609.26"/><polygon class="cls-43" points="273.62 609.26 273.62 618.34 272.5 618.34 272.5 611.32 273.62 609.26"/><path class="cls-19" d="M251.44,401a69.77,69.77,0,0,0,2.55-7.29c0-.19.1-.37.14-.55.13-.51.25-1,.36-1.52.06-.29.12-.57.17-.86a12.08,12.08,0,0,0,0-5.6c-1.61-4.76,10.1-1.46,10.1-1.46s-2.27,12.59,0,16.84S251.44,401,251.44,401Z"/><path class="cls-45" d="M271.31,400.74c1.31-1.64-7.87-2.21-7.87-2.21l-10.7-.92a96.56,96.56,0,0,0-13.07,3.2c-5.72,2-13.2,12.8-13.2,12.8s10.33,24.23,12.3,31.19-2.24,24.65-2.24,24.65c12.37,6.74,36.81.72,36.81.72S263.6,410.39,271.31,400.74Z"/><path class="cls-46" d="M275.67,430s-.48,1-1.8,5c-1.34-11.23-.64-17.08-.64-17.08A42.48,42.48,0,0,0,275.67,430Z"/><path class="cls-19" d="M264,398.16l-12.6,10.27,1.3-10.82S260.08,396,264,398.16Z"/><path class="cls-47" d="M272.35,441.43c-1.74,7.19,7,29.67,7,29.67l-14.79,5a3.15,3.15,0,0,1-4.12-2.43c-1.67-9.36-6-34.44-6.48-45.56-.61-13.82,9.45-30.12,9.45-30.12,17.88,3.07,13,30.12,13,30.12s-.65,1.7-1.52,4.37h0c-.22.67-.45,1.4-.69,2.18C273.6,436.66,272.94,439,272.35,441.43Z"/><path class="cls-47" d="M251.47,398.2l.22-.59s-9.16,1.39-13.81,3.72-13.56,14.33-13.56,14.33L236,431c0,11.82-4.11,39.56-4.11,39.56l8.1,3.31a1.92,1.92,0,0,0,2.66-1.76c.13-8.44.53-33.44.73-43.2C243.59,417.12,252,398,252,398Z"/><path class="cls-19" d="M234.87,453.63s8.78.35,10.15,0,10.48-4.29,11-8.2-21.18,3.5-21.18,3.5Z"/><polygon class="cls-48" points="262.13 441.43 226.47 437.26 242.58 450.36 262.13 441.43"/><polygon class="cls-49" points="242.58 450.36 262.13 443.7 262.13 441.43 241.92 447.91 242.58 450.36"/><polygon class="cls-50" points="253.39 395.62 246.62 406.36 243.35 408.43 250.98 397.73 253.39 395.62"/><polygon class="cls-51" points="246.62 406.36 251.44 408.43 252.74 397.61 253.39 395.62 246.62 406.36"/><path class="cls-47" d="M235.94,448.61s-.36,4.54,0,5.49c0,0-22-2.2-24-5.27a13.23,13.23,0,0,1-2-6.81Z"/><polygon class="cls-49" points="242.58 450.36 232.18 411.71 192.65 407.53 203.48 443.12 242.58 450.36"/><path class="cls-47" d="M293.82,428.26c2-1.63,3.15-2.23,5.54-4.29,3.72-3.2,8.47-7.25,8.47-7.25l4.52,6.63s-10.93,9.61-16.73,15.31h0s-7.35,7.89-9,7.19-7.5-9.19-12.18-17.35-6.77-13.38-7-16.94S279,406.29,279,406.29l9.22,20.13a30.14,30.14,0,0,0,2.47,3.75S292.73,429,293.82,428.26Z"/><path class="cls-19" d="M260,356.2c-4.12-.68-13.54.36-16.22,11.17a35.08,35.08,0,0,0,.45,5.41c.45,2.4-2.42,9-1.91,9.42a15,15,0,0,0,2.7,1.09s1.56,7.77,4.2,8,12.82-.69,18.58-9.47S276.62,358.92,260,356.2Z"/><path class="cls-42" d="M243.76,367.37s6.2,5.36,12.77,7,10.05,9.07,10.05,9.07,11.62-11.59,4.6-22.84S243.78,354.41,243.76,367.37Z"/><path class="cls-42" d="M257.74,374.8s6.88,18,6.07,22.39c0,0,3.4-.59,9.73,1.34C273.54,398.53,270.48,366.31,257.74,374.8Z"/><polygon class="cls-51" points="255.08 406.69 251.44 408.43 263.81 396.16 255.08 406.69"/><polygon class="cls-50" points="263.81 396.16 255.08 406.69 259.86 410.95 265.01 398.35 263.81 396.16"/><path class="cls-22" d="M261.41,388c-.05.09-2,3-7.28,5.12.13-.51.25-1,.36-1.52.06-.29.12-.57.17-.86C254.66,390.73,259.07,389.66,261.41,388Z"/><path class="cls-52" d="M218.86,427.87c1.1,2.07,1.09,4.23,0,4.83s-2.92-.6-4-2.67-1.08-4.23,0-4.83S217.76,425.8,218.86,427.87Z"/><path class="cls-47" d="M265,398.35s11.52-1.56,14.87,10.49C279.88,408.84,265.24,407.27,265,398.35Z"/><g class="cls-53"><rect class="cls-54" x="457.69" y="65.62" width="180.46" height="209.59" rx="37.89"/></g><path class="cls-55" d="M567.24,152.56a46.11,46.11,0,1,0-86.84,31.06c.35,1,.73,1.93,1.13,2.87a46.12,46.12,0,0,0,85.71-33.93Zm-31.78,48.08a34.57,34.57,0,0,1-38-10.15,34.1,34.1,0,0,1-5.36-8.61c-.31-.7-.59-1.42-.86-2.15a34.58,34.58,0,1,1,44.2,20.91Z"/><path class="cls-13" d="M490.81,157.78l-11-3.44A46.15,46.15,0,0,1,522.44,122l.35,11.54a34.62,34.62,0,0,0-32,24.26Z"/><path class="cls-5" d="M492.12,181.88l-10.59,4.61c-.4-.94-.78-1.9-1.13-2.87a45.88,45.88,0,0,1-.6-29.28l11,3.44a34.5,34.5,0,0,0,.45,21.95C491.53,180.46,491.81,181.18,492.12,181.88Z"/><path class="cls-14" d="M488.68,198a45.94,45.94,0,0,1-7.15-11.48l10.59-4.61a34.1,34.1,0,0,0,5.36,8.61Z"/><path class="cls-14" d="M607.23,180.73a19.07,19.07,0,1,0-16.32,34.48c.39.19.78.36,1.18.51a18.79,18.79,0,0,0,5.44,1.27,19.08,19.08,0,0,0,9.7-36.26ZM612,204.09a14.3,14.3,0,0,1-18.17,7.19c-.29-.12-.59-.24-.88-.38a14.31,14.31,0,0,1-6.81-19.05,14.51,14.51,0,0,1,2.52-3.69A14.3,14.3,0,0,1,612,204.09Z"/><path class="cls-13" d="M586.4,204.61l-4.23,2.22a19.12,19.12,0,0,1,3-21.94l3.48,3.27a14.51,14.51,0,0,0-2.52,3.69A14.3,14.3,0,0,0,586.4,204.61Z"/><path class="cls-5" d="M593.83,211.28l-1.74,4.44c-.4-.15-.79-.32-1.18-.51a19,19,0,0,1-8.74-8.38l4.23-2.22A14.23,14.23,0,0,0,593,210.9C593.24,211,593.54,211.16,593.83,211.28Z"/><polygon class="cls-56" points="593.21 229.56 557.59 229.56 557.59 228.86 592.5 228.86 592.5 215.4 593.21 215.4 593.21 229.56"/><rect class="cls-5" x="479.8" y="221.49" width="31.88" height="4.25"/><rect class="cls-5" x="557.59" y="221.49" width="18.75" height="4.25"/><rect class="cls-14" x="472.57" y="83.61" width="15.26" height="3.26"/><rect class="cls-14" x="536.18" y="95.89" width="23.67" height="3.26"/><rect class="cls-14" x="505.57" y="95.89" width="14.45" height="3.26"/><rect class="cls-14" x="472.57" y="95.89" width="28.63" height="3.26"/><rect class="cls-14" x="492.48" y="83.61" width="22.61" height="3.26"/><rect class="cls-14" x="524.55" y="95.89" width="6.21" height="3.26"/><rect class="cls-14" x="542.96" y="83.79" width="16.89" height="3.26"/><rect class="cls-14" x="565.88" y="95.89" width="14.4" height="3.26"/><rect class="cls-14" x="520.64" y="83.79" width="17.9" height="3.26"/><rect class="cls-4" x="525.12" y="249.3" width="45.6" height="45.6" rx="20.4"/><rect class="cls-57" x="545.76" y="263.03" width="4.31" height="18.14"/><rect class="cls-57" x="545.76" y="263.03" width="4.31" height="18.14" transform="translate(820.02 -275.82) rotate(90)"/><polygon class="cls-2" points="707.9 77.33 669.38 38.81 651.09 57.09 650.07 56.08 669.38 36.78 708.92 76.32 707.9 77.33"/></g></g></svg>