<svg id="Layer_1" data-name="Layer 1" xmlns="http://www.w3.org/2000/svg" viewBox="0 0 415.47 50"><defs><style>.cls-1{fill:#ff766e;}.cls-2{fill:#fff;}</style></defs><title>Checklyst-Web Design</title><rect class="cls-1" x="98.39" y="1.01" width="10.32" height="10.32"/><rect class="cls-1" x="113.43" y="1.01" width="34.56" height="10.32"/><rect class="cls-1" x="98.39" y="19.86" width="10.32" height="10.32"/><rect class="cls-1" x="113.43" y="19.86" width="34.56" height="10.32"/><rect class="cls-1" x="98.39" y="38.71" width="10.32" height="10.32"/><rect class="cls-1" x="113.43" y="38.71" width="34.56" height="10.32"/><polygon class="cls-2" points="101.86 8.81 103.11 9.76 103.12 9.74 103.15 9.76 104.1 8.51 104.08 8.49 107.69 3.76 106.44 2.8 102.83 7.54 100.33 5.63 99.37 6.88 101.87 8.79 101.86 8.81"/><polygon class="cls-2" points="106.44 21.54 102.83 26.27 100.33 24.36 99.37 25.61 101.87 27.52 101.86 27.54 103.11 28.5 103.12 28.48 103.15 28.5 104.1 27.25 104.08 27.23 107.69 22.5 106.44 21.54"/><path d="M32.63,31.38l9.46,3q-2.18,7.9-7.23,11.75T22,50A20.76,20.76,0,0,1,6.2,43.39Q0,36.82,0,25.41,0,13.35,6.23,6.67T22.61,0Q31.48,0,37,5.24a19.07,19.07,0,0,1,5,8.9L32.3,16.45A10,10,0,0,0,22.12,8.34a11,11,0,0,0-8.72,3.85q-3.35,3.87-3.35,12.5,0,9.17,3.3,13.05a10.71,10.71,0,0,0,8.57,3.89,9.82,9.82,0,0,0,6.69-2.47Q31.42,36.69,32.63,31.38Z"/><path d="M50.49,49.14V.82h9.76v19H79.37V.82h9.75V49.14H79.37V28H60.25V49.14Z"/><path d="M188.87,31.38l9.46,3q-2.18,7.9-7.24,11.75T178.26,50a20.79,20.79,0,0,1-15.83-6.58q-6.19-6.57-6.19-18,0-12.06,6.23-18.74T178.85,0q8.86,0,14.4,5.24a19.07,19.07,0,0,1,4.95,8.9l-9.66,2.31a10,10,0,0,0-10.19-8.11,11,11,0,0,0-8.71,3.85q-3.34,3.87-3.35,12.5,0,9.17,3.3,13.05a10.7,10.7,0,0,0,8.57,3.89,9.82,9.82,0,0,0,6.69-2.47Q187.64,36.69,188.87,31.38Z"/><path d="M206.83,49.14V.82h9.76V22.28L236.3.82h13.12l-18.2,18.82,19.18,29.5H237.78L224.5,26.47l-7.91,8.07v14.6Z"/><path d="M255.71,49.14V1.22h9.76V41h24.26v8.14Z"/><path d="M303.17,49.14V28.81l-17.7-28h11.44l11.37,19.12L319.42.82h11.24L312.9,28.87V49.14Z"/><path d="M333,33.42l9.5-.92q.86,4.77,3.47,7a10.55,10.55,0,0,0,7.07,2.24c3.15,0,5.51-.66,7.11-2a6,6,0,0,0,2.39-4.67,4.39,4.39,0,0,0-1-2.91,8,8,0,0,0-3.51-2.1c-1.14-.39-3.75-1.1-7.81-2.11q-7.85-1.93-11-4.78a12.68,12.68,0,0,1-2.36-16.62,13.09,13.09,0,0,1,6-4.9A24.13,24.13,0,0,1,352.41,0q9.1,0,13.7,4a14.12,14.12,0,0,1,4.83,10.64l-9.76.43a8.28,8.28,0,0,0-2.68-5.35q-2.07-1.64-6.18-1.63a11.17,11.17,0,0,0-6.66,1.74,3.51,3.51,0,0,0-1.55,3,3.69,3.69,0,0,0,1.45,2.93q1.85,1.56,9,3.23a47.49,47.49,0,0,1,10.53,3.48,13.56,13.56,0,0,1,5.34,4.91,14.36,14.36,0,0,1,1.93,7.7,14.3,14.3,0,0,1-2.3,7.78,13.87,13.87,0,0,1-6.53,5.39A27.49,27.49,0,0,1,353,50q-9.15,0-14.07-4.24T333,33.42Z"/><path d="M391.41,49.14V9H377.07V.82h38.4V9H401.16V49.14Z"/></svg>